<svg id="Layer_1" data-name="Layer 1" xmlns="http://www.w3.org/2000/svg" viewBox="0 0 512 512"><defs><style>.cls-1{fill:#141f38;}.cls-2{fill:#ff5f6e;}</style></defs><title>antenna-tower-filled</title><path class="cls-1" d="M100.83,275.69a6.56,6.56,0,0,1-5.26-2.62C67.4,235.5,52.51,190.32,52.51,142.41,52.51,90.85,70.43,41.11,103,2.34A6.56,6.56,0,1,1,113,10.78C82.47,47.19,65.64,93.93,65.64,142.41c0,45,14,87.5,40.44,122.77a6.56,6.56,0,0,1-5.25,10.5Z"/><path class="cls-1" d="M411.17,275.69a6.56,6.56,0,0,1-5.25-10.5c26.46-35.28,40.44-77.73,40.44-122.77,0-48.48-16.82-95.23-47.37-131.63A6.56,6.56,0,1,1,409,2.34c32.53,38.77,50.44,88.51,50.44,140.07,0,47.9-14.89,93.08-43.06,130.65A6.56,6.56,0,0,1,411.17,275.69Z"/><path class="cls-1" d="M141.66,236.31a6.55,6.55,0,0,1-5.28-2.66A159.9,159.9,0,0,1,105,137.78,159.77,159.77,0,0,1,136.24,42a6.57,6.57,0,0,1,10.56,7.81,146.72,146.72,0,0,0-28.65,87.93,146.9,146.9,0,0,0,28.78,88.06,6.56,6.56,0,0,1-5.27,10.47Z"/><path class="cls-1" d="M372.77,236.31A6.56,6.56,0,0,1,367.4,226a149.2,149.2,0,0,0-4.65-176,6.57,6.57,0,1,1,10.33-8.1,162.33,162.33,0,0,1,5.07,191.61A6.56,6.56,0,0,1,372.77,236.31Z"/><circle class="cls-2" cx="256" cy="137.84" r="39.38"/><path class="cls-1" d="M256,183.79a45.95,45.95,0,1,1,45.95-45.95A46,46,0,0,1,256,183.79ZM256,105a32.82,32.82,0,1,0,32.82,32.82A32.86,32.86,0,0,0,256,105Z"/><path class="cls-1" d="M178,196.92a6.56,6.56,0,0,1-5.63-3.18A105.11,105.11,0,0,1,175.2,81.67,6.56,6.56,0,1,1,186.09,89a92,92,0,0,0-2.51,98,6.56,6.56,0,0,1-5.62,9.95Z"/><path class="cls-1" d="M334,196.92a6.56,6.56,0,0,1-5.62-9.95,92,92,0,0,0-2.51-98,6.56,6.56,0,1,1,10.89-7.33,105.11,105.11,0,0,1,2.87,112.07A6.56,6.56,0,0,1,334,196.92Z"/><path class="cls-1" d="M137.85,512a6.57,6.57,0,0,1-6.31-8.37L227.3,168.4A6.56,6.56,0,0,1,239.93,172L144.16,507.24A6.57,6.57,0,0,1,137.85,512Z"/><path class="cls-1" d="M374.15,512a6.57,6.57,0,0,1-6.31-4.76L272.07,172a6.56,6.56,0,0,1,12.62-3.61l95.77,335.23a6.57,6.57,0,0,1-6.31,8.37Z"/><path class="cls-1" d="M351.64,433.23H160.36a6.56,6.56,0,0,1-3.58-12.06l142.75-93H190.36a6.56,6.56,0,0,1,0-13.13H321.64a6.56,6.56,0,0,1,3.58,12.06l-142.75,93H351.64a6.56,6.56,0,0,1,0,13.13Z"/></svg>